<?xml version="1.0" encoding="UTF-8"?>
<svg version="1.1" xmlns="http://www.w3.org/2000/svg" width="1148" height="217">
<path d="M0 0 C1.14740662 -0.00855011 1.14740662 -0.00855011 2.31799316 -0.01727295 C3.93854397 -0.02670769 5.55911383 -0.03325087 7.1796875 -0.03710938 C9.62014946 -0.04673265 12.05973846 -0.07773466 14.5 -0.109375 C31.50604958 -0.22518066 45.27437478 2.93778051 57.90234375 14.953125 C58.64613281 15.695625 59.38992188 16.438125 60.15625 17.203125 C60.74535156 17.780625 61.33445312 18.358125 61.94140625 18.953125 C70.34345834 27.8923927 73.70894934 40.45268884 73.40625 52.50390625 C71.96629819 68.05088596 65.63831936 79.84957037 54.15625 90.203125 C43.6605933 98.36320974 33.07822046 101.33036299 19.90625 101.40625 C19.12991211 101.41195007 18.35357422 101.41765015 17.55371094 101.42352295 C15.91993555 101.43292521 14.28614161 101.43948782 12.65234375 101.44335938 C10.16372636 101.45309575 7.67592515 101.48417571 5.1875 101.515625 C3.59375486 101.52215346 2.00000387 101.52740455 0.40625 101.53125 C-0.33141602 101.5435968 -1.06908203 101.5559436 -1.82910156 101.56866455 C-6.56894769 101.54837038 -9.91361233 100.90215293 -13.84375 98.203125 C-16.19883592 93.9059736 -16.13985361 89.61504595 -16.13427734 84.83618164 C-16.14099457 84.0062822 -16.14771179 83.17638275 -16.15463257 82.32133484 C-16.17358902 79.58525564 -16.17753534 76.84942198 -16.1796875 74.11328125 C-16.18611625 72.20665893 -16.19284467 70.30003761 -16.19985962 68.39341736 C-16.21182591 64.39970614 -16.21554103 60.40608139 -16.21435547 56.41235352 C-16.21415213 51.29996526 -16.24147241 46.18813197 -16.27589989 41.07587528 C-16.29815648 37.13900718 -16.30219342 33.20227301 -16.30113602 29.26534843 C-16.30349314 27.38072227 -16.31232297 25.49609248 -16.32780075 23.6115284 C-16.34743898 20.97377936 -16.3416319 18.33723207 -16.32958984 15.69946289 C-16.34082886 14.92472626 -16.35206787 14.14998962 -16.36364746 13.35177612 C-16.30360171 8.16502712 -15.13375841 5.1943694 -11.84375 1.203125 C-8.30327337 -0.53174784 -3.89887813 0.02272425 0 0 Z M10.15625 26.203125 C10.15625 42.373125 10.15625 58.543125 10.15625 75.203125 C26.86216605 76.36224645 26.86216605 76.36224645 39.6171875 69.08984375 C45.28103305 62.58220081 47.6637312 57.15667544 47.3984375 48.4609375 C46.59779221 40.99685718 42.8698693 35.01672285 37.15625 30.203125 C27.81460921 24.78694861 27.81460921 24.78694861 10.15625 26.203125 Z " fill="#E92C67" transform="translate(834.84375,77.796875)"/>
<path d="M0 0 C1.20527344 -0.03996094 2.41054688 -0.07992187 3.65234375 -0.12109375 C8.13221705 0.61272284 9.31544845 1.848441 12.0625 5.4375 C12.78599275 8.50964347 12.74638022 11.50135429 12.70947266 14.64648438 C12.71823425 15.56577225 12.72699585 16.48506012 12.73602295 17.4322052 C12.75799851 20.46570271 12.74347049 23.49773812 12.7265625 26.53125 C12.72993116 28.642052 12.73478419 30.7528521 12.74105835 32.86364746 C12.7484272 37.28542567 12.73772341 41.70669854 12.71435547 46.12841797 C12.6858681 51.79486057 12.70227195 57.46011909 12.73221779 63.12651825 C12.75029017 67.48460809 12.74453291 71.84241744 12.73157883 76.20051575 C12.72824467 78.28969971 12.7323322 80.37890918 12.74397659 82.46806335 C12.75668399 85.38889968 12.73730936 88.3078218 12.70947266 91.22851562 C12.72465439 92.52224846 12.72465439 92.52224846 12.74014282 93.84211731 C12.6635058 98.18510984 12.46815233 99.91804026 9.70956421 103.45056152 C5.09171963 106.91680652 0.63841302 106.98938218 -4.9375 106.4375 C-8.29287627 105.09534949 -10.39539202 103.97960798 -12.9375 101.4375 C-14.01 102.076875 -15.0825 102.71625 -16.1875 103.375 C-22.69588943 107.05874842 -28.60354062 107.211345 -35.875 105.3125 C-44.96307072 102.35199211 -52.66546452 95.45606223 -57.2265625 87.06640625 C-61.55905029 77.57545279 -62.70369094 67.70007349 -59.3125 57.625 C-55.57688765 48.62557025 -49.10822999 40.49133572 -40.26171875 36.11328125 C-32.40085639 33.01460107 -26.65260423 32.17175429 -18.69140625 35.46875 C-17.79881104 35.83548828 -16.90621582 36.20222656 -15.98657227 36.58007812 C-15.31037842 36.86302734 -14.63418457 37.14597656 -13.9375 37.4375 C-13.91768066 36.51936523 -13.89786133 35.60123047 -13.87744141 34.65527344 C-13.79923045 31.24078175 -13.71253416 27.82672298 -13.62011719 24.41259766 C-13.58189334 22.93644464 -13.54702897 21.46020057 -13.515625 19.98388672 C-13.46983014 17.85871906 -13.41186163 15.73417458 -13.3515625 13.609375 C-13.3201416 12.3315918 -13.2887207 11.05380859 -13.25634766 9.73730469 C-12.96193306 6.69036159 -12.60862504 4.95722256 -10.9375 2.4375 C-7.5512883 -0.01026966 -4.08133442 0.07404769 0 0 Z M-30.9375 60.4375 C-33.8070003 63.15189218 -34.83208397 65.0751324 -35.9375 68.875 C-35.9375 73.40082292 -34.91935172 75.0733596 -31.9375 78.4375 C-28.51312474 80.79651407 -26.53940268 81.4269403 -22.375 81.5 C-17.89611037 80.11561593 -16.44794536 78.3508413 -13.9375 74.4375 C-12.65870282 70.60110846 -12.70496487 69.03046459 -14.1875 65.25 C-16.98872416 60.69453395 -16.98872416 60.69453395 -21.75 58.625 C-25.45478099 58.40707171 -27.59034677 58.83668759 -30.9375 60.4375 Z " fill="#000000" transform="translate(590.9375,72.5625)"/>
<path d="M0 0 C1.38809868 -0.00202411 2.77619632 -0.00493834 4.16429138 -0.00869751 C7.06332597 -0.01310361 9.96208196 -0.00674465 12.86108398 0.00732422 C16.56543128 0.02443155 20.26912711 0.01455489 23.97345066 -0.00339317 C26.83632769 -0.01426405 29.69905173 -0.01076991 32.56193352 -0.0030098 C33.92739884 -0.00101773 35.29287835 -0.00343196 36.6583271 -0.01044846 C38.56982256 -0.01811843 40.48136716 -0.0043437 42.39282227 0.01025391 C43.47757339 0.01264069 44.56232452 0.01502747 45.6799469 0.01748657 C49.25121382 0.46119573 51.67260386 1.55262982 54.74609375 3.3984375 C56.31198802 6.53022604 56.05419822 9.83743996 56.12109375 13.2734375 C56.17716797 14.35431641 56.17716797 14.35431641 56.234375 15.45703125 C56.29853179 19.32782407 56.12696049 20.99973754 53.41015625 23.84375 C49.87837676 25.90481779 47.29096818 26.52321306 43.2746582 26.51196289 C41.92359734 26.51184959 41.92359734 26.51184959 40.54524231 26.51173401 C39.5764061 26.50657272 38.60756989 26.50141144 37.609375 26.49609375 C36.11750923 26.49397133 36.11750923 26.49397133 34.59550476 26.49180603 C31.41650393 26.48620511 28.23757332 26.47365246 25.05859375 26.4609375 C22.90429789 26.45592262 20.75000093 26.45135969 18.59570312 26.44726562 C13.31247291 26.43623537 8.02929524 26.41897012 2.74609375 26.3984375 C2.74609375 30.3584375 2.74609375 34.3184375 2.74609375 38.3984375 C3.71957764 38.37225342 4.69306152 38.34606934 5.69604492 38.3190918 C9.32064677 38.22833729 12.94514902 38.17109849 16.57055664 38.1237793 C18.13713489 38.09869203 19.70359674 38.06461335 21.26977539 38.02124023 C23.52649684 37.96032524 25.78166669 37.93217251 28.0390625 37.91015625 C28.73509079 37.88434982 29.43111908 37.8585434 30.14823914 37.83195496 C33.9970145 37.82975369 35.62211988 38.30120814 38.6862793 40.7043457 C41.39304342 44.24460196 41.41528667 46.47914535 41.37109375 50.8984375 C41.39042969 52.83203125 41.39042969 52.83203125 41.41015625 54.8046875 C40.5741214 59.3291114 39.33974359 60.58003488 35.74609375 63.3984375 C32.95771402 63.83846892 30.80557322 63.98929182 28.0390625 63.88671875 C27.31366776 63.87964401 26.58827301 63.87256927 25.84089661 63.86528015 C23.53738672 63.83742156 21.23636124 63.77470941 18.93359375 63.7109375 C17.36657172 63.68584313 15.79951135 63.66303194 14.23242188 63.64257812 C10.40269719 63.58762431 6.57481578 63.50141976 2.74609375 63.3984375 C2.7618042 64.31133545 2.77751465 65.2242334 2.79370117 66.16479492 C2.84496345 69.5660576 2.88250814 72.96690713 2.91088867 76.3684082 C2.92593441 77.83787532 2.94637613 79.30729784 2.97241211 80.77661133 C3.0089833 82.8941552 3.02586176 85.01110315 3.0390625 87.12890625 C3.05477295 88.40145264 3.0704834 89.67399902 3.08666992 90.98510742 C2.72142255 94.64569778 1.94811494 96.48944634 -0.25390625 99.3984375 C-4.71763138 102.23898985 -10.14671261 101.90507111 -15.25390625 101.3984375 C-18.75390625 100.3359375 -18.75390625 100.3359375 -21.25390625 98.3984375 C-23.10669155 93.33831707 -23.54263988 88.61401162 -23.51269531 83.27929688 C-23.51619995 82.49947952 -23.51970459 81.71966217 -23.52331543 80.91621399 C-23.53206285 78.35811254 -23.52630846 75.80029139 -23.51953125 73.2421875 C-23.52087991 71.45292101 -23.52282212 69.66365489 -23.52532959 67.87438965 C-23.52827139 64.1322072 -23.52401364 60.3901205 -23.51464844 56.64794922 C-23.50325448 51.86320116 -23.50981902 47.07867752 -23.52179337 42.29393768 C-23.52903749 38.60152511 -23.52671232 34.9091653 -23.52153778 31.2167511 C-23.52020834 29.4529874 -23.52182415 27.68921883 -23.52649689 25.92546082 C-23.53160419 23.45603839 -23.52379322 20.98697404 -23.51269531 18.51757812 C-23.51674377 17.79633255 -23.52079224 17.07508698 -23.52496338 16.33198547 C-23.48672764 11.71457613 -22.86215284 7.73287192 -21.25390625 3.3984375 C-15.01901348 -0.96303673 -7.3319517 -0.03774062 0 0 Z " fill="#000000" transform="translate(221.25390625,77.6015625)"/>
<path d="M0 0 C3.00556536 3.28733711 3.11805764 6.34236537 3.20532227 10.68066406 C3.22526749 11.56127502 3.24521271 12.44188599 3.26576233 13.34918213 C3.28247482 14.29098328 3.29918732 15.23278442 3.31640625 16.203125 C3.33718735 17.17409119 3.35796844 18.14505737 3.37937927 19.14544678 C3.44468862 22.24272685 3.50367323 25.34009068 3.5625 28.4375 C3.60570292 30.53907111 3.64931778 32.6406338 3.69335938 34.7421875 C3.80035098 39.89053948 3.9016709 45.03897558 4 50.1875 C4.74330566 49.42969238 5.48661133 48.67188477 6.25244141 47.89111328 C7.24364563 46.88817883 8.23502882 45.88542124 9.2265625 44.8828125 C9.71455322 44.38434814 10.20254395 43.88588379 10.70532227 43.37231445 C15.58719153 38.44966098 20.81532425 33.7196982 28 33.1875 C32.54636701 35.8686908 37.03101018 40.26502545 39 45.1875 C39.75 48.4375 39.75 48.4375 39 52.1875 C34.34450074 58.19561054 28.20824627 62.87386839 22 67.1875 C28.11455777 72.79803782 34.35173976 78.17408688 40.84765625 83.33984375 C43.41616726 85.54475429 43.88467695 86.49556172 44.4375 89.8125 C43.66396726 95.77975258 39.58316192 99.56475903 35.5 103.75 C32.16116486 105.66983021 30.68830807 105.11640722 27 104.1875 C18.05965394 99.2281895 10.9937992 91.51084995 4 84.1875 C3.90203125 85.22390625 3.8040625 86.2603125 3.703125 87.328125 C3.5529998 88.69801741 3.40190713 90.06780404 3.25 91.4375 C3.1571875 92.46037109 3.1571875 92.46037109 3.0625 93.50390625 C2.67234155 96.85276627 2.20166017 98.92917498 0.109375 101.609375 C-4.649254 105.16953447 -10.31558734 104.64524919 -16 104.1875 C-19.25924688 102.92371039 -20.47150026 102.17636789 -22.10491943 99.12010193 C-23.29471494 95.22190915 -23.27885575 91.48887013 -23.25878906 87.45336914 C-23.2622937 86.58445541 -23.26579834 85.71554169 -23.26940918 84.82029724 C-23.27819553 81.9543351 -23.27238774 79.08862081 -23.265625 76.22265625 C-23.26697266 74.22635348 -23.26891404 72.23005104 -23.27142334 70.23374939 C-23.27437051 66.05171582 -23.27009045 61.86976776 -23.26074219 57.68774414 C-23.24935533 52.33337874 -23.25590489 46.97921402 -23.26788712 41.624856 C-23.27512297 37.50270584 -23.27280972 33.38060306 -23.26763153 29.25845146 C-23.26629943 27.28452976 -23.26792734 25.31060373 -23.27259064 23.33668709 C-23.27768336 20.57468443 -23.26990669 17.81300411 -23.25878906 15.05102539 C-23.26283752 14.2388858 -23.26688599 13.42674622 -23.27105713 12.58999634 C-23.23767644 8.10169389 -22.89513596 4.34727455 -21 0.1875 C-14.74837966 -3.9802469 -6.38661677 -3.85858097 0 0 Z " fill="#E92C67" transform="translate(1086,74.8125)"/>
<path d="M0 0 C5.98669033 5.8839775 9.31885483 12.22019002 9.99609375 20.6640625 C10.00546088 26.26560479 9.17940941 30.54125678 5.625 34.9375 C0.71149732 38.79810925 -2.85242648 39.28114878 -9.046875 39.1953125 C-10.20367767 39.19106766 -10.20367767 39.19106766 -11.3838501 39.18673706 C-13.83939332 39.17557013 -16.2945676 39.15047229 -18.75 39.125 C-20.41796347 39.11496568 -22.08593268 39.10584061 -23.75390625 39.09765625 C-27.83607897 39.07564225 -31.917977 39.04113667 -36 39 C-31.29629853 43.89450614 -31.29629853 43.89450614 -25 46 C-18.64057373 45.91252509 -12.99621084 45.14150387 -7 43 C-3.9375 42.5625 -3.9375 42.5625 -1 43 C3.78299655 46.91336081 5.68692295 49.84324702 6.5625 55.875 C6.43194742 59.21341592 5.73016778 60.93360257 3.375 63.3125 C-5.64158413 69.95725176 -19.30356611 70.01167122 -30 69 C-40.96356317 66.84622566 -50.27191106 62.49635396 -56.71875 53.1484375 C-62.71284384 43.09736552 -64.48442143 32.86878904 -62.5390625 21.24609375 C-59.75839564 10.79405773 -53.20012619 2.23536835 -43.875 -3.25 C-29.96653916 -10.00553812 -12.39368625 -9.914949 0 0 Z M-34 20 C-34.66 21.65 -35.32 23.3 -36 25 C-29.73 25 -23.46 25 -17 25 C-16.34 23.68 -15.68 22.36 -15 21 C-15.92548775 18.30066074 -16.42373537 17.28813232 -19 16 C-25.09528578 15.25637514 -29.27537262 15.73631188 -34 20 Z " fill="#E82C67" transform="translate(976,112)"/>
<path d="M0 0 C0.86625 0.53625 1.7325 1.0725 2.625 1.625 C8.69123415 7.69123415 12.13184647 14.77590744 12.25 23.3125 C12.20012982 28.29951782 12.06451745 31.87875239 9 36 C3.93344873 40.57225359 0.79835868 41.14310041 -5.8515625 41.09765625 C-6.62559418 41.0962413 -7.39962585 41.09482635 -8.19711304 41.09336853 C-10.67311442 41.08776403 -13.14902588 41.07521083 -15.625 41.0625 C-17.30208203 41.05748558 -18.97916547 41.05292257 -20.65625 41.04882812 C-24.77086806 41.03779315 -28.88541878 41.02052554 -33 41 C-28.72293062 45.39785041 -26.12543673 47.68107788 -19.9375 48.3125 C-16.37135554 48.02947266 -13.43403948 47.3721075 -10 46.4375 C-5.30764051 45.21162108 -1.73288452 44.42237183 3 46 C6.00299018 48.92182828 7.9373588 51.94264268 9 56 C8.92887769 60.05397139 8.72156754 62.18823651 6 65.25 C-5.60465058 72.01937951 -20.39655209 72.68281476 -33.3125 69.875 C-42.50960349 67.24550897 -49.53619494 61.81962751 -55 54 C-60.58483583 43.69606277 -61.70394086 32.17891611 -59.31640625 20.71875 C-55.94627438 10.76217784 -50.29610787 3.91032657 -41 -1 C-27.75017984 -6.90768335 -12.68650415 -8.31291715 0 0 Z M-33 24 C-33.33 24.99 -33.66 25.98 -34 27 C-30.68751813 27.02888146 -27.37506833 27.04675799 -24.0625 27.0625 C-23.11697266 27.07087891 -22.17144531 27.07925781 -21.19726562 27.08789062 C-20.29814453 27.09111328 -19.39902344 27.09433594 -18.47265625 27.09765625 C-17.64000244 27.10289307 -16.80734863 27.10812988 -15.94946289 27.11352539 C-13.99483202 27.21643292 -13.99483202 27.21643292 -13 26 C-12.61753389 22.44036188 -12.61753389 22.44036188 -14.21875 19.37109375 C-17.14080446 17.12188078 -19.8416246 17.41356038 -23.41796875 17.5078125 C-27.64178394 18.3129573 -30.36166447 20.6839269 -33 24 Z " fill="#000000" transform="translate(671,110)"/>
<path d="M0 0 C8.27956155 6.06155057 14.16856887 14.04730307 16.125 24.25 C16.77649771 33.32824676 16.61342669 41.13737785 12.125 49.25 C11.47144531 50.43722656 11.47144531 50.43722656 10.8046875 51.6484375 C5.30717542 60.69079343 -2.75505045 65.6858054 -12.73046875 68.8359375 C-23.11148043 70.84028584 -32.99346765 69.3146753 -42.05078125 63.96484375 C-50.87111081 57.81630334 -57.73608181 49.95787614 -59.875 39.25 C-61.08972669 27.88941324 -59.79759859 18.31190973 -53.11328125 8.72265625 C-39.70672122 -7.62083782 -17.96230521 -11.25719813 0 0 Z M-32.625 23.9375 C-34.42323228 27.26422972 -34.99744781 30.51174031 -34.875 34.25 C-33.39166716 38.38771793 -31.83134856 41.21836155 -27.875 43.25 C-22.25693363 44.65451659 -18.64494906 44.53137589 -13.58203125 41.60546875 C-10.53443238 39.18552182 -9.73399173 36.99274967 -8.875 33.25 C-9.08761656 28.40888438 -9.91302407 25.21197593 -13.375 21.75 C-20.44243448 17.50953931 -26.7255731 18.24876692 -32.625 23.9375 Z " fill="#000000" transform="translate(342.875,110.75)"/>
<path d="M0 0 C1.40378906 -0.02126953 1.40378906 -0.02126953 2.8359375 -0.04296875 C6.95224352 0.29717418 9.73166335 1.14013979 12.4375 4.3125 C12.829375 4.93125 13.22125 5.55 13.625 6.1875 C14.08390625 5.83816406 14.5428125 5.48882812 15.015625 5.12890625 C15.62921875 4.67386719 16.2428125 4.21882813 16.875 3.75 C17.47828125 3.29753906 18.0815625 2.84507813 18.703125 2.37890625 C23.22714347 -0.42561739 28.46582277 -0.37003666 33.625 0.1875 C43.24760804 2.54929019 49.54197624 6.6185045 54.875 14.9375 C60.8518873 24.80943745 61.10388088 34.85322659 61.01611328 46.0480957 C60.99991828 48.51243469 61.01608543 50.9751615 61.03515625 53.43945312 C61.03317561 55.01823276 61.02933565 56.59701139 61.0234375 58.17578125 C61.02951019 58.90606033 61.03558289 59.63633942 61.0418396 60.38874817 C60.98089587 64.82326476 60.35101756 67.6589091 57.625 71.1875 C53.3340104 73.8378171 48.51177726 73.61398238 43.625 73.1875 C40.5488365 72.38502257 39.10840855 71.67090855 36.875 69.4375 C34.275818 64.75897239 34.49809418 59.41674205 34.44921875 54.1796875 C34.41344727 52.20548828 34.41344727 52.20548828 34.37695312 50.19140625 C34.34174585 48.11983994 34.31241231 46.04888119 34.29907227 43.97705078 C34.28359386 41.96104766 34.24174642 39.94530144 34.19921875 37.9296875 C34.18463623 36.7319873 34.17005371 35.53428711 34.1550293 34.30029297 C33.52208315 30.58308278 32.62341128 29.41250233 29.625 27.1875 C25.01392429 26.07191717 22.74258482 25.81497173 18.25 27.3125 C15.14506286 29.53031224 14.7038026 30.57872931 13.625 34.1875 C13.44024468 36.73238971 13.34783592 39.17578864 13.3515625 41.71875 C13.33128051 43.18360149 13.31042987 44.64844519 13.2890625 46.11328125 C13.26645312 48.40420142 13.24998136 50.69481312 13.24414062 52.98583984 C13.2345975 55.20986499 13.20081481 57.43253097 13.1640625 59.65625 C13.16910797 60.33659302 13.17415344 61.01693604 13.17935181 61.71789551 C13.08186973 66.45240073 11.96857592 68.8603314 8.625 72.1875 C3.81318811 74.14080978 -2.31139315 73.72583222 -7.25 72.4375 C-9.79218156 70.94209908 -10.84410818 69.71099285 -12.375 67.1875 C-12.76268005 64.42433167 -12.76268005 64.42433167 -12.77905273 61.21313477 C-12.79173691 60.00830948 -12.80442108 58.80348419 -12.81748962 57.56214905 C-12.81455399 56.26417892 -12.81161835 54.9662088 -12.80859375 53.62890625 C-12.81315693 52.2789636 -12.81846291 50.92902327 -12.82447815 49.5790863 C-12.83340482 46.752091 -12.83099174 43.92537825 -12.82104492 41.09838867 C-12.80955906 37.48227242 -12.82976138 33.86713326 -12.85896206 30.25114536 C-12.87734276 27.46377912 -12.87702795 24.6766462 -12.87132454 21.88923454 C-12.87109733 19.91005678 -12.88798014 17.9309009 -12.90513611 15.95179749 C-12.89575516 14.74382004 -12.88637421 13.53584259 -12.87670898 12.29125977 C-12.87654282 11.2307692 -12.87637665 10.17027863 -12.87620544 9.07765198 C-12.2473668 5.45151566 -10.94108628 3.78318694 -8.375 1.1875 C-5.33978606 0.17576202 -3.17766921 0.02176486 0 0 Z " fill="#000000" transform="translate(461.375,105.8125)"/>
<path d="M0 0 C1.27230469 0.00902344 2.54460937 0.01804687 3.85546875 0.02734375 C5.31919922 0.04474609 5.31919922 0.04474609 6.8125 0.0625 C6.8125 0.7225 6.8125 1.3825 6.8125 2.0625 C7.451875 2.330625 8.09125 2.59875 8.75 2.875 C10.8125 4.0625 10.8125 4.0625 11.8125 7.0625 C11.90657154 9.58821151 11.94948368 12.0913605 11.953125 14.6171875 C11.9714515 16.13412962 11.99102167 17.65105713 12.01171875 19.16796875 C12.04068455 21.55347408 12.06250011 23.93803782 12.06298828 26.32373047 C12.06632968 28.63072737 12.10090922 30.93556648 12.140625 33.2421875 C12.1335553 33.95067841 12.1264856 34.65916931 12.11920166 35.38912964 C12.21463966 39.28821087 12.7134856 40.94018094 15.19824219 44.00976562 C18.04187474 46.24260672 19.25184287 46.74313527 22.8125 46.6875 C23.6375 46.70039063 24.4625 46.71328125 25.3125 46.7265625 C28.99143559 45.74934523 30.43338793 44.00260836 32.8125 41.0625 C33.28504998 38.27471909 33.46680033 36.08782352 33.4140625 33.3125 C33.42206879 32.57676758 33.43007507 31.84103516 33.43832397 31.08300781 C33.46132044 28.74227206 33.45196117 26.40328114 33.4375 24.0625 C33.43364423 21.72204636 33.43715446 19.38236024 33.45809937 17.04199219 C33.47012738 15.58956443 33.46761975 14.13692064 33.44839478 12.68457031 C33.47256552 8.29308618 34.14747949 5.57078317 36.8125 2.0625 C39.98992188 -0.19927773 42.91531947 -0.23549301 46.75 -0.25 C48.27947266 -0.27513672 48.27947266 -0.27513672 49.83984375 -0.30078125 C53.21877814 0.11215029 55.08634059 1.05811446 57.8125 3.0625 C59.17384441 5.78518881 58.96229084 7.96127112 58.98950195 11.00927734 C59.00875481 12.88164566 59.00875481 12.88164566 59.02839661 14.7918396 C59.03656338 16.16070154 59.04400723 17.52956796 59.05078125 18.8984375 C59.05485678 19.58666218 59.0589323 20.27488686 59.06313133 20.98396683 C59.0839887 24.62602692 59.09829232 28.26804936 59.10766602 31.91015625 C59.11873551 35.67205699 59.15314152 39.43336703 59.19283772 43.19505882 C59.21897958 46.08785097 59.22735557 48.98050176 59.23094749 51.87340164 C59.23581912 53.26009744 59.24744968 54.64678669 59.26598549 56.03336716 C59.29032229 57.97441119 59.2869975 59.91574228 59.2824707 61.85693359 C59.28833694 62.96120697 59.29420319 64.06548035 59.30024719 65.20321655 C58.69979874 68.72318008 57.57434741 69.87581024 54.8125 72.0625 C49.52855268 74.02570572 43.58680403 73.70770146 38.375 71.8125 C35.77607942 70.03762741 34.824832 68.99826279 33.8125 66.0625 C32.513125 67.238125 32.513125 67.238125 31.1875 68.4375 C26.15340415 72.59917643 21.29013035 73.60230253 14.8125 73.0625 C5.82929311 71.31290651 -0.68464417 67.43165908 -6.4375 60.3125 C-13.47133782 49.81241564 -13.79298829 40.33615693 -13.65405273 28.01074219 C-13.62485328 25.17324268 -13.63351953 22.33758834 -13.64648438 19.5 C-13.64025284 17.69009511 -13.6318665 15.88019606 -13.62109375 14.0703125 C-13.62402939 13.22550323 -13.62696503 12.38069397 -13.62998962 11.51028442 C-13.5737607 8.01587698 -13.5171438 5.67781107 -11.84790039 2.56201172 C-8.34630224 -0.60029028 -4.47305544 -0.04103721 0 0 Z " fill="#000000" transform="translate(380.1875,105.9375)"/>
<path d="M0 0 C1.4296875 1.20703125 1.4296875 1.20703125 3.0546875 3.83203125 C3.16593982 8.94963803 0.77916738 12.66517967 -1.9453125 16.83203125 C-4.9453125 18.83203125 -4.9453125 18.83203125 -8.3203125 18.58203125 C-11.9453125 17.83203125 -11.9453125 17.83203125 -14.24609375 16.79296875 C-17.5513592 15.61627512 -20.25906115 15.6363494 -23.7578125 15.70703125 C-25.49998047 15.73410156 -25.49998047 15.73410156 -27.27734375 15.76171875 C-28.59798828 15.79652344 -28.59798828 15.79652344 -29.9453125 15.83203125 C-29.6153125 16.82203125 -29.2853125 17.81203125 -28.9453125 18.83203125 C-25.48445406 20.34061057 -22.01344463 21.0022474 -18.3203125 21.64453125 C-9.96782185 23.26440822 -1.90479932 25.59118049 3.0546875 32.83203125 C6.86294841 39.82331621 7.08340863 46.97171528 4.8671875 54.51953125 C2.94167968 59.58944635 0.66907592 63.48822699 -4.31640625 66.05078125 C-17.1022644 71.37030618 -31.14899887 71.58805937 -44.1875 66.98046875 C-53.26016044 63.20233536 -53.26016044 63.20233536 -54.9453125 59.83203125 C-55.82404358 53.6809137 -53.85888319 50.5059605 -50.453125 45.65234375 C-48.5177896 43.31590256 -47.43960355 42.90617491 -44.4453125 42.45703125 C-40.89841245 42.83705625 -39.16642764 43.61668209 -36.0703125 45.26953125 C-30.02682088 48.48666814 -24.79013354 49.04593191 -17.9453125 48.83203125 C-17.9453125 47.84203125 -17.9453125 46.85203125 -17.9453125 45.83203125 C-18.88890625 45.68507812 -19.8325 45.538125 -20.8046875 45.38671875 C-30.51827757 43.68976627 -40.96851993 41.53925031 -48.0078125 34.01953125 C-52.2412668 27.05481611 -54.09517426 19.98327352 -52.9453125 11.83203125 C-51.28963841 6.15289111 -49.12574261 1.96438434 -43.9453125 -1.16796875 C-30.86679269 -7.47368366 -12.67352601 -7.60920537 0 0 Z " fill="#000000" transform="translate(805.9453125,110.16796875)"/>
<path d="M0 0 C2.34008803 2.22336155 3.00297451 3.36100746 4.1875 6.5 C3.76255254 12.76797507 0.70253313 17.12829468 -3.3125 21.8125 C-7.37100243 23.84175121 -10.74526672 23.32611097 -15.0625 22.1875 C-16.73266516 21.19335407 -18.39970673 20.1939275 -20.0625 19.1875 C-24.43827501 18.63058318 -26.52761022 18.90024438 -30.4375 21 C-33.28729728 22.98463416 -33.28729728 22.98463416 -34.0625 26.1875 C-34.4311858 31.16475826 -34.22706308 34.23179615 -31.0625 38.1875 C-26.71729945 40.91135706 -22.90276717 40.28439508 -18.0625 39.1875 C-16.38220006 38.21058143 -14.71321396 37.21361949 -13.0625 36.1875 C-10.25 35.5625 -10.25 35.5625 -7.0625 36.1875 C-2.08960326 39.47755336 2.0920467 43.40507966 3.9375 49.1875 C3.9375 53.08639753 3.32422348 54.70702538 0.875 57.75 C-7.63286958 64.80972157 -15.41724625 67.69570643 -26.625 67.0625 C-38.27974056 65.61810908 -47.50281822 59.8975937 -54.81640625 50.83984375 C-61.39501285 42.11648767 -61.92792612 32.81361821 -61.0625 22.1875 C-59.01529889 12.4541007 -53.75899312 4.52031931 -45.625 -1.1875 C-31.40448792 -9.91812051 -13.5782432 -10.30073622 0 0 Z " fill="#EA2B67" transform="translate(1052.0625,112.8125)"/>
<path d="M0 0 C10.86373621 10.23919464 17.52987019 23.26040035 18.41015625 38.19140625 C18.60854877 53.76521906 15.29085764 67.06308757 4.4609375 78.6328125 C-0.17470664 82.97923101 -5.39342782 87.57186606 -11.79296875 88.74609375 C-11.90253906 89.79925781 -12.01210937 90.85242188 -12.125 91.9375 C-13.18110431 101.67750715 -14.7026384 111.17238077 -16.79296875 120.74609375 C-17.78296875 121.07609375 -18.77296875 121.40609375 -19.79296875 121.74609375 C-19.9454471 117.40893175 -19.89325871 113.08341262 -19.79296875 108.74609375 C-19.7760498 107.79750488 -19.75913086 106.84891602 -19.74169922 105.87158203 C-19.66232345 102.68007707 -19.51489062 99.49703116 -19.35546875 96.30859375 C-19.33564941 95.26638672 -19.31583008 94.22417969 -19.29541016 93.15039062 C-18.84258513 85.78633856 -18.84258513 85.78633856 -15.796875 82.76782227 C-13.51965787 81.24636581 -11.2357621 79.97864412 -8.79296875 78.74609375 C-0.9396972 73.24880367 4.80866195 64.30489687 6.8125 54.90625 C8.52955939 41.1527743 7.50273278 28.58297623 -0.48046875 16.87109375 C-8.12839151 7.18090801 -18.42359527 0.5986928 -30.79296875 -1.25390625 C-43.543959 -2.16150299 -54.66565977 -0.77141154 -64.6953125 7.765625 C-71.05980631 13.7745605 -75.92229248 19.39091493 -78.79296875 27.74609375 C-79.20546875 28.94234375 -79.61796875 30.13859375 -80.04296875 31.37109375 C-82.51445674 42.50392253 -81.67446758 54.17436911 -75.87109375 64 C-71.17860218 71.2885811 -65.90065743 78.30328612 -57.91796875 82.12109375 C-54.03535974 85.0901477 -54.08124307 90.6292198 -53.44873047 95.27392578 C-53.15389305 97.88755223 -52.90106648 100.50125711 -52.66796875 103.12109375 C-52.54059326 104.49720825 -52.54059326 104.49720825 -52.41064453 105.90112305 C-51.85658834 112.19138872 -51.52671158 118.42988204 -51.79296875 124.74609375 C-52.78296875 124.74609375 -53.77296875 124.74609375 -54.79296875 124.74609375 C-56.58476474 120.77064931 -57.31122744 117.0674721 -57.9140625 112.7578125 C-58.12830638 111.39738195 -58.34518887 110.03736481 -58.56445312 108.67773438 C-58.90362339 106.56030442 -59.22888179 104.44561604 -59.50952148 102.31958008 C-60.6266054 93.4620797 -60.6266054 93.4620797 -65.33740234 86.09936523 C-68.07955072 84.11836884 -70.86323678 82.43049374 -73.79296875 80.74609375 C-82.9859432 73.14586173 -89.26894865 62.37023707 -91.79296875 50.74609375 C-92.59643394 40.65530138 -92.59624393 30.23118488 -88.79296875 20.74609375 C-88.46425781 19.91078125 -88.13554688 19.07546875 -87.796875 18.21484375 C-84.70347174 11.27877001 -80.11823843 6.08995076 -74.79296875 0.74609375 C-74.25027344 0.18019531 -73.70757812 -0.38570312 -73.1484375 -0.96875 C-52.84604094 -20.34597406 -20.72041548 -16.72123039 0 0 Z " fill="#101010" transform="translate(133.79296875,55.25390625)"/>
<path d="M0 0 C1.875 1.6875 1.875 1.6875 2.875 4.6875 C3.71417969 4.0378125 3.71417969 4.0378125 4.5703125 3.375 C11.76713162 -1.62343385 18.21657236 -2.63588527 26.875 -1.3125 C32.35969966 1.0316632 32.35969966 1.0316632 34.25 3.4375 C35.94320105 9.53302378 34.69949673 14.21718788 32.00390625 19.73046875 C30.5596456 22.23418703 29.55954635 23.53698014 26.875 24.6875 C20.72348485 25.11174242 20.72348485 25.11174242 17.875 23.6875 C12.12841581 22.95307333 12.12841581 22.95307333 7.27490234 25.69482422 C4.22651001 29.49616636 4.20847631 32.42931112 4.30859375 37.09375 C4.30014183 38.29723083 4.30014183 38.29723083 4.29151917 39.52502441 C4.27510389 42.07978223 4.29058058 44.63280309 4.3125 47.1875 C4.32911916 49.74203382 4.33815822 52.29542368 4.32276917 54.84997559 C4.31352194 56.43599827 4.32254534 58.02226363 4.35240173 59.60803223 C4.33409895 63.3105998 4.00614007 65.47628356 2.03540039 68.65039062 C-1.9380413 72.39707358 -6.20495598 71.95524207 -11.38671875 71.9140625 C-14.86255111 71.6264758 -17.25447977 70.65154016 -20.125 68.6875 C-21.48634441 65.96481119 -21.27479084 63.78872888 -21.30200195 60.74072266 C-21.31483719 59.49247711 -21.32767242 58.24423157 -21.34089661 56.9581604 C-21.34906338 55.58929846 -21.35650723 54.22043204 -21.36328125 52.8515625 C-21.36939454 51.81922548 -21.36939454 51.81922548 -21.37563133 50.76603317 C-21.3964887 47.12397308 -21.41079232 43.48195064 -21.42016602 39.83984375 C-21.43123551 36.07794301 -21.46564152 32.31663297 -21.50533772 28.55494118 C-21.53147958 25.66214903 -21.53985557 22.76949824 -21.54344749 19.87659836 C-21.54831912 18.48990256 -21.55994968 17.10321331 -21.57848549 15.71663284 C-21.60282229 13.77558881 -21.5994975 11.83425772 -21.5949707 9.89306641 C-21.60377007 8.23665634 -21.60377007 8.23665634 -21.61274719 6.54678345 C-21.00875099 3.0060222 -19.92939355 1.86363881 -17.125 -0.3125 C-11.60253874 -2.15332042 -5.38128318 -2.26013894 0 0 Z " fill="#000000" transform="translate(712.125,107.3125)"/>
<path d="M0 0 C3.80337898 2.85844011 5.70761562 5.85134709 6.875 10.4375 C6.91625 11.283125 6.9575 12.12875 7 13 C12.94 12.505 12.94 12.505 19 12 C19.2784375 10.453125 19.2784375 10.453125 19.5625 8.875 C20.72846161 4.8993948 22.68921396 2.63188558 25.93359375 0.10546875 C29.60625531 -1.85930104 32.98219769 -1.86525705 37 -1 C40 0.5625 40 0.5625 42 3 C43.1151803 6.83343229 43.42658496 8.98093592 41.875 12.6875 C36.99797866 18.70249298 32.42476108 19.9043071 25 21 C24.81824219 22.74410156 24.81824219 22.74410156 24.6328125 24.5234375 C23.78359936 32.64403817 22.91934835 40.76202556 22 48.875 C20.86763823 58.90384544 19.93157982 68.95083046 19 79 C18.01 78.67 17.02 78.34 16 78 C15.11597013 67.94911952 14.81365983 57.97649822 14.81469727 47.89257812 C14.81247712 45.47508969 14.79413968 43.05803529 14.77539062 40.640625 C14.77246136 39.08333486 14.77047344 37.52604261 14.76953125 35.96875 C14.76234573 35.25618042 14.75516022 34.54361084 14.74775696 33.80944824 C14.76740732 29.4975603 15.42052682 26.00952221 17 22 C14.69 22.33 12.38 22.66 10 23 C10.16226074 23.96478271 10.32452148 24.92956543 10.49169922 25.92358398 C11.12245767 30.36205111 11.14386279 34.74627326 11.1328125 39.22265625 C11.13424759 40.51821693 11.13424759 40.51821693 11.13571167 41.83995056 C11.1363888 43.65607781 11.13456724 45.47220755 11.13037109 47.28833008 C11.12500966 50.05750997 11.13033533 52.82652818 11.13671875 55.59570312 C11.13605801 57.36718786 11.13477694 59.13867249 11.1328125 60.91015625 C11.13483673 61.73218033 11.13686096 62.55420441 11.13894653 63.40113831 C11.12147178 67.71296433 10.85860814 71.75342814 10 76 C9.01 76 8.02 76 7 76 C5.59614374 73.19228747 5.70815573 70.68573517 5.53515625 67.55078125 C5.45642006 66.21288828 5.37764254 64.87499774 5.29882812 63.53710938 C5.1809738 61.44694961 5.06492094 59.35670458 4.95043945 57.26635742 C4.46535589 48.53380112 3.69601997 39.94610311 2.40014648 31.29370117 C2.01902283 28.15658146 1.92838501 25.15615373 2 22 C1.01 22.061875 0.02 22.12375 -1 22.1875 C-6.46640494 22.17641196 -11.07298893 20.43290567 -15.4375 17.1875 C-17.44414027 14.37820363 -17.85954872 12.44105635 -18 9 C-16.94960638 4.98940618 -15.14469805 2.66822865 -12 0 C-7.78351667 -1.40549444 -4.25776879 -1.29836561 0 0 Z M-7 8 C-7.33 8.99 -7.66 9.98 -8 11 C-5.03 11.495 -5.03 11.495 -2 12 C-2.33 11.01 -2.66 10.02 -3 9 C-5.01508358 8.26676204 -5.01508358 8.26676204 -7 8 Z M32 7 C30.68 8.32 29.36 9.64 28 11 C29.98 10.34 31.96 9.68 34 9 C33.34 8.34 32.68 7.68 32 7 Z " fill="#101010" transform="translate(85,92)"/>
<path d="M0 0 C-0.33 1.32 -0.66 2.64 -1 4 C-3.85267373 4.81806834 -6.70695185 5.62957796 -9.5625 6.4375 C-10.36236328 6.66759766 -11.16222656 6.89769531 -11.98632812 7.13476562 C-22.47597412 10.08899246 -33.00636625 12.21406978 -43 7 C-43 6.01 -43 5.02 -43 4 C-12.93327111 -4.7659008 -12.93327111 -4.7659008 0 0 Z " fill="#0C0C0C" transform="translate(119,200)"/>
<path d="M0 0 C0 1.32 0 2.64 0 4 C-2.70706344 4.81694231 -5.41551396 5.62866494 -8.125 6.4375 C-9.26582031 6.78264648 -9.26582031 6.78264648 -10.4296875 7.13476562 C-16.82807622 9.03773468 -22.79184444 10.1475705 -29.5 10.1875 C-30.5828125 10.20167969 -31.665625 10.21585938 -32.78125 10.23046875 C-36.15198705 9.98911743 -38.8530049 9.19908096 -42 8 C-42 7.01 -42 6.02 -42 5 C-37.32029478 3.49560397 -32.63362355 2.01998348 -27.93066406 0.58984375 C-26.43728705 0.13359706 -24.94816418 -0.33658746 -23.4609375 -0.8125 C-16.831215 -2.65551166 -6.23442488 -3.11721244 0 0 Z " fill="#101010" transform="translate(118,182)"/>
<path d="M0 0 C0.66 0 1.32 0 2 0 C1.37166255 8.17203463 0.53883973 16.3003011 -0.4375 24.4375 C-1.79444609 35.9444695 -2.95875319 47.46053539 -4 59 C-4.99 58.67 -5.98 58.34 -7 58 C-8.41110843 44.36768465 -8.0962545 30.68590943 -8 17 C-6 20 -6 20 -5 23 C-2.58808847 20.58808847 -2.58863466 19.53242518 -2.1484375 16.2109375 C-2.01953125 15.26992187 -1.890625 14.32890625 -1.7578125 13.359375 C-1.63148437 12.37453125 -1.50515625 11.3896875 -1.375 10.375 C-1.2409375 9.38242188 -1.106875 8.38984375 -0.96875 7.3671875 C-0.63829276 4.91236225 -0.31571516 2.45675748 0 0 Z " fill="#050505" transform="translate(108,112)"/>
<path d="M0 0 C7.12629031 2.89505544 12.2334522 11.25391043 15.390625 18.0390625 C16.44372058 21.42787007 16.25147358 24.47936988 16 28 C12.69017648 27.76193845 11.83873468 26.82650603 9.52734375 24.33984375 C8.65033456 23.21631125 7.78758484 22.08153941 6.9375 20.9375 C6.4935791 20.34839844 6.0496582 19.75929688 5.59228516 19.15234375 C1.56339165 13.66209217 -1.86340556 8.12309589 -1 1 C-0.67 0.67 -0.34 0.34 0 0 Z " fill="#0F0F0F" transform="translate(54,8)"/>
<path d="M0 0 C-0.84521651 7.41609328 -6.75674893 13.89529558 -12.01171875 18.92578125 C-13.8125 20.3125 -13.8125 20.3125 -17 22 C-19.19921875 21.60546875 -19.19921875 21.60546875 -21 21 C-19.58474387 17.00099421 -17.67943 13.86330817 -15.1875 10.4375 C-14.52105469 9.50808594 -13.85460937 8.57867187 -13.16796875 7.62109375 C-9.43519686 3.10813891 -6.05914245 0 0 0 Z " fill="#111111" transform="translate(169,32)"/>
<path d="M0 0 C1.32 0 2.64 0 4 0 C4.5687799 17.34778708 4.5687799 17.34778708 -0.5 23.6875 C-3 26 -3 26 -5 26 C-5.66601013 6.537704 -5.66601013 6.537704 0 0 Z " fill="#111111" transform="translate(113,8)"/>
<path d="M0 0 C0.66 0 1.32 0 2 0 C2.02478762 5.58674804 2.04290152 11.1734638 2.05493164 16.76025391 C2.05994885 18.65934812 2.06676411 20.5584385 2.07543945 22.45751953 C2.08761963 25.19304352 2.09325454 27.92851626 2.09765625 30.6640625 C2.10281754 31.50804596 2.10797882 32.35202942 2.11329651 33.22158813 C2.11370954 37.59835842 1.88088964 41.69004167 1 46 C0.01 46 -0.98 46 -2 46 C-3.55107983 42.89784033 -3.36078313 39.56149037 -3.53515625 36.1484375 C-3.57813339 35.37440582 -3.62111053 34.60037415 -3.66539001 33.80288696 C-3.80189832 31.32713056 -3.93226764 28.85109371 -4.0625 26.375 C-4.15389318 24.69789462 -4.24568503 23.02081091 -4.33789062 21.34375 C-4.56322292 17.22940402 -4.78304951 13.11479612 -5 9 C-4.01 9.33 -3.02 9.66 -2 10 C-2.01160156 11.07121094 -2.02320312 12.14242187 -2.03515625 13.24609375 C-2.04453299 14.64322743 -2.05363331 16.04036299 -2.0625 17.4375 C-2.07087891 18.14455078 -2.07925781 18.85160156 -2.08789062 19.58007812 C-2.09653588 21.38693559 -2.05220011 23.19387603 -2 25 C-1.67 25.33 -1.34 25.66 -1 26 C-0.76271186 32.52542373 -0.76271186 32.52542373 -2 35 C-1.34 35 -0.68 35 0 35 C0.02703381 33.06257659 0.04641125 31.12504521 0.0625 29.1875 C0.07410156 28.10855469 0.08570312 27.02960938 0.09765625 25.91796875 C0.13624766 22.93487831 0.13624766 22.93487831 -1 20 C-0.88797645 18.2664355 -0.71397428 16.5364519 -0.5 14.8125 C0.01576962 9.95781846 -0.28763505 5.8084634 -1 1 C-0.67 0.67 -0.34 0.34 0 0 Z " fill="#040404" transform="translate(94,122)"/>
<path d="M0 0 C8.0509527 2.21692901 17.47111086 5.53463758 22 13 C22 13.99 22 14.98 22 16 C14.04278494 15.646346 6.63846364 11.67132763 0.75 6.375 C0.1725 5.59125 -0.405 4.8075 -1 4 C-0.609375 1.8515625 -0.609375 1.8515625 0 0 Z " fill="#040404" transform="translate(17,48)"/>
<path d="M0 0 C1.45864468 -0.09971204 2.9169393 -0.20458432 4.375 -0.3125 C13.06730149 -0.4432113 22.97674697 4.11716694 30 9 C30 9.66 30 10.32 30 11 C30.91394531 11.21914063 31.82789063 11.43828125 32.76953125 11.6640625 C36.68810917 13.28456268 37.60032265 14.74554941 39.6875 18.375 C42.00905463 22.37384578 42.00905463 22.37384578 44.6640625 26.1484375 C46.46931401 28.65045275 46.65644578 30.97672287 47 34 C46.01 34.495 46.01 34.495 45 35 C44.78085938 34.45472656 44.56171875 33.90945312 44.3359375 33.34765625 C38.25472878 18.88624527 30.3626756 11.23285922 16 5 C6.55382587 1.17046995 -5.46599471 1.88685542 -15 5 C-14.5 3.125 -14.5 3.125 -13 1 C-8.4585082 -0.94926951 -4.76498505 -1.13452025 0 0 Z " fill="#050505" transform="translate(95,51)"/>
<path d="M0 0 C1.34313399 0.64669414 2.67391178 1.31903578 4 2 C4.86625 2.350625 5.7325 2.70125 6.625 3.0625 C11.12981542 6.737481 11.00661569 13.55101239 11.6328125 19.0859375 C11.80416132 20.84826509 11.96807889 22.61132919 12.125 24.375 C12.20991699 25.29240967 12.29483398 26.20981934 12.38232422 27.1550293 C12.93638041 33.44529497 13.26625717 39.68378829 13 46 C12.01 46 11.02 46 10 46 C7.63047311 41.26094622 8.11888674 38.05071964 9.55761719 33.06933594 C10.33333438 29.44076036 9.66805273 25.90497529 9.25 22.25 C9.17523438 21.4765625 9.10046875 20.703125 9.0234375 19.90625 C8.42681683 14.51858452 7.08023106 10.00627036 5 5 C4.01 5 3.02 5 2 5 C1.34 3.35 0.68 1.7 0 0 Z " fill="#040404" transform="translate(69,134)"/>
<path d="M0 0 C1.32029286 3.74016092 0.72135221 6.66591499 0.00390625 10.515625 C-0.22490234 11.76601562 -0.45371094 13.01640625 -0.68945312 14.3046875 C-0.93862171 15.61982585 -1.18797299 16.9349296 -1.4375 18.25 C-1.68370733 19.58058791 -1.92915856 20.91131597 -2.17382812 22.2421875 C-2.77512196 25.49624823 -3.38412249 28.74867338 -4 32 C-5.485 32.495 -5.485 32.495 -7 33 C-7.10705831 25.94604715 -7.03145227 18.91758378 -6.625 11.875 C-6.55539063 10.63492188 -6.48578125 9.39484375 -6.4140625 8.1171875 C-6 5 -6 5 -4 2 C-4 5.66666667 -4 9.33333333 -4 13 C-3.79503906 12.14535156 -3.59007813 11.29070312 -3.37890625 10.41015625 C-3.10949219 9.30542969 -2.84007813 8.20070312 -2.5625 7.0625 C-2.29566406 5.96035156 -2.02882813 4.85820312 -1.75390625 3.72265625 C-1 1 -1 1 0 0 Z " fill="#050505" transform="translate(121,144)"/>
<path d="M0 0 C-0.60183749 2.02045442 -1.27306096 4.02111039 -2 6 C-2.99 6.495 -2.99 6.495 -4 7 C-4.40729228 9.32156597 -4.74438677 11.6568787 -5 14 C-6.32 14 -7.64 14 -9 14 C-12.57142857 6.71428571 -12.57142857 6.71428571 -11 2 C-9.54494642 1.47007308 -8.08581873 0.9513211 -6.625 0.4375 C-5.81289062 0.14746094 -5.00078125 -0.14257812 -4.1640625 -0.44140625 C-2 -1 -2 -1 0 0 Z " fill="#111111" transform="translate(80,94)"/>
<path d="M0 0 C3.49890004 2.11391877 4.70578686 3.11736059 6 7 C5.01 7 4.02 7 3 7 C3 6.01 3 5.02 3 4 C-1.34829249 2.81679116 -5.539128 2.01223549 -10 3 C-12.8593903 5.50196651 -14.45521753 8.60977681 -15.828125 12.11328125 C-17.84989169 15.36832563 -20.97444424 15.70949062 -24.51171875 16.671875 C-27 17 -27 17 -30.125 15.6875 C-30.74375 15.130625 -31.3625 14.57375 -32 14 C-31.67 13.01 -31.34 12.02 -31 11 C-30.67 11.99 -30.34 12.98 -30 14 C-24.06 13.505 -24.06 13.505 -18 13 C-17.814375 11.96875 -17.62875 10.9375 -17.4375 9.875 C-16.27153839 5.8993948 -14.31078604 3.63188558 -11.06640625 1.10546875 C-7.40736752 -0.85201322 -4.00304185 -0.89206363 0 0 Z " fill="#040404" transform="translate(122,91)"/>
<path d="M0 0 C1.65 0.33 3.3 0.66 5 1 C3.4411666 4.82622743 1.04566418 7.25147379 -2 10 C-2.99 10.33 -3.98 10.66 -5 11 C-6.20882096 13.00016466 -6.20882096 13.00016466 -7 15 C-10 15 -10 15 -12 14 C-10.74742108 10.24226324 -8.91481378 8.64366832 -6 6 C-5.278125 5.649375 -4.55625 5.29875 -3.8125 4.9375 C-1.47139069 3.72658139 -0.95928874 2.39822186 0 0 Z " fill="#121212" transform="translate(135,126)"/>
<path d="M0 0 C-1.32 0.99 -2.64 1.98 -4 3 C-4.495 2.01 -4.495 2.01 -5 1 C-6.32 1.33 -7.64 1.66 -9 2 C-9 1.67 -9 1.34 -9 1 C-10.62414378 0.80522261 -12.24936423 0.61940542 -13.875 0.4375 C-14.77992187 0.33308594 -15.68484375 0.22867188 -16.6171875 0.12109375 C-19.01653057 -0.19674852 -19.01653057 -0.19674852 -21 1 C-21.70125 0.814375 -22.4025 0.62875 -23.125 0.4375 C-26.52381056 -0.0797103 -28.78541856 0.55564001 -32.03515625 1.52734375 C-34 2 -34 2 -38 2 C-29.35944408 -6.64055592 -10.31136923 -2.97443343 0 0 Z " fill="#060505" transform="translate(113,44)"/>
<path d="M0 0 C-0.71285156 0.49628906 -1.42570312 0.99257813 -2.16015625 1.50390625 C-12.7611133 9.02302383 -18.63504743 15.03202887 -24 27 C-24.66 26.01 -25.32 25.02 -26 24 C-24.88407791 21.99492073 -23.75701288 19.99603904 -22.625 18 C-21.99851562 16.88625 -21.37203125 15.7725 -20.7265625 14.625 C-20.15679687 13.75875 -19.58703125 12.8925 -19 12 C-18.34 12 -17.68 12 -17 12 C-16.74992187 11.41476563 -16.49984375 10.82953125 -16.2421875 10.2265625 C-14.83523859 7.70467294 -13.31287196 6.24913938 -11.125 4.375 C-10.44695312 3.78460938 -9.76890625 3.19421875 -9.0703125 2.5859375 C-3.96796339 -1.32265446 -3.96796339 -1.32265446 0 0 Z " fill="#030303" transform="translate(79,56)"/>
<path d="M0 0 C1 2 1 2 0.51171875 3.875 C0.10373047 4.926875 0.10373047 4.926875 -0.3125 6 C-0.57675781 6.70125 -0.84101562 7.4025 -1.11328125 8.125 C-2 10 -2 10 -4 12 C-4.37004294 14.22658154 -4.37004294 14.22658154 -4.4140625 16.7890625 C-4.45273437 17.73007813 -4.49140625 18.67109375 -4.53125 19.640625 C-4.5621875 20.62546875 -4.593125 21.6103125 -4.625 22.625 C-4.66367187 23.61757812 -4.70234375 24.61015625 -4.7421875 25.6328125 C-4.8366314 28.08835385 -4.92219875 30.5438841 -5 33 C-8.51116666 27.73325001 -7.50291606 21.12588112 -7 15 C-5.62718017 9.29907824 -3.67669849 4.58270442 0 0 Z " fill="#CA3362" transform="translate(998,120)"/>
<path d="M0 0 C0.66 0 1.32 0 2 0 C1.835 1.010625 1.67 2.02125 1.5 3.0625 C0.38368771 11.99299835 0.56142913 21.12881297 2 30 C1.34 30 0.68 30 0 30 C-2.26743612 21.98839238 -4.48811055 13.8547082 -1 6 C-0.62406934 4.0075675 -0.28020455 2.0081326 0 0 Z " fill="#040404" transform="translate(52,83)"/>
<path d="M0 0 C0.66 0.33 1.32 0.66 2 1 C1.85851011 2.6045556 1.71164314 4.20863767 1.5625 5.8125 C1.48128906 6.70582031 1.40007812 7.59914063 1.31640625 8.51953125 C1 11 1 11 0 14 C3.0745356 13.2236068 3.0745356 13.2236068 5 11 C4.67506385 14.5742977 4.36129314 16.55712453 2.0625 19.375 C0 21 0 21 -2 21 C-2.2494783 13.70968976 -1.72330907 7.09326321 0 0 Z " fill="#050505" transform="translate(110,13)"/>
<path d="M0 0 C0.89589844 -0.01417969 1.79179688 -0.02835937 2.71484375 -0.04296875 C5.0625 0.1875 5.0625 0.1875 7.0625 2.1875 C6.70888402 6.7845078 5.64262426 10.86849369 4.0625 15.1875 C3.7325 15.1875 3.4025 15.1875 3.0625 15.1875 C2.0554762 10.15238101 2.08862187 6.94802962 4.0625 2.1875 C1.7525 2.5175 -0.5575 2.8475 -2.9375 3.1875 C-2.9375 5.1675 -2.9375 7.1475 -2.9375 9.1875 C-3.5975 8.8575 -4.2575 8.5275 -4.9375 8.1875 C-5.625 4.6875 -5.625 4.6875 -5.9375 1.1875 C-4.27188601 -0.47811399 -2.27787295 0.01634055 0 0 Z " fill="#0D0D0D" transform="translate(97.9375,111.8125)"/>
<path d="M0 0 C0.33 0.66 0.66 1.32 1 2 C0.5153125 2.32871094 0.030625 2.65742187 -0.46875 2.99609375 C-8.52672757 8.7141586 -14.58730217 15.37862255 -18.9921875 24.25 C-20 26 -20 26 -22 27 C-20.61786689 17.25596157 -12.1729482 9.1971231 -5 3 C-3.35727001 1.96114681 -1.69610051 0.94922117 0 0 Z " fill="#040404" transform="translate(68,49)"/>
<path d="M0 0 C-5.625 3.875 -5.625 3.875 -9 5 C-7.02 5.66 -5.04 6.32 -3 7 C-3 7.33 -3 7.66 -3 8 C-4.6254308 7.85904936 -6.25034051 7.71207913 -7.875 7.5625 C-8.77992187 7.48128906 -9.68484375 7.40007812 -10.6171875 7.31640625 C-13 7 -13 7 -15 6 C-15 5.01 -15 4.02 -15 3 C-12.87790224 2.30359327 -10.75221473 1.61811643 -8.625 0.9375 C-6.84996094 0.36322266 -6.84996094 0.36322266 -5.0390625 -0.22265625 C-2 -1 -2 -1 0 0 Z " fill="#070707" transform="translate(91,184)"/>
<path d="M0 0 C0 0.66 0 1.32 0 2 C-4.455 3.485 -4.455 3.485 -9 5 C-7.50256881 6.49743119 -6.01175761 6.33202693 -3.9375 6.5625 C-2.638125 6.706875 -1.33875 6.85125 0 7 C0 7.66 0 8.32 0 9 C-5.65394631 9.34615998 -9.03006806 8.43425238 -14 6 C-14 5.01 -14 4.02 -14 3 C-12.23050388 2.49528803 -10.45934777 1.99639315 -8.6875 1.5 C-7.70136719 1.2215625 -6.71523437 0.943125 -5.69921875 0.65625 C-3 0 -3 0 0 0 Z " fill="#060606" transform="translate(90,201)"/>
<path d="M0 0 C0.33 0 0.66 0 1 0 C1.78640777 21.32038835 1.78640777 21.32038835 -4 30 C-5.59463342 26.81073315 -3.99043537 23.84015265 -3.0625 20.5625 C-1.44151972 14.56210032 -0.61196505 9.19922841 -0.95703125 2.94140625 C-0.97121094 2.30074219 -0.98539063 1.66007812 -1 1 C-0.67 0.67 -0.34 0.34 0 0 Z " fill="#030303" transform="translate(151,90)"/>
<path d="M0 0 C0.66 0 1.32 0 2 0 C-0.3783527 5.62156092 -4.34966739 10.5370345 -10 13 C-12.3125 12.6875 -12.3125 12.6875 -14 12 C-12.7508258 8.54074837 -11.32472205 5.85306797 -9 3 C-8.34 3.33 -7.68 3.66 -7 4 C-7.99 5.98 -8.98 7.96 -10 10 C-5.26686692 7.20314863 -3.00032991 4.71480414 0 0 Z " fill="#040404" transform="translate(162,41)"/>
<path d="M0 0 C0.804375 0.515625 1.60875 1.03125 2.4375 1.5625 C7.92926843 3.77847673 12.56130743 2.84607701 18.0625 0.9375 C18.701875 0.628125 19.34125 0.31875 20 0 C20 1.32 20 2.64 20 4 C16.39006828 5.13480527 13.0157673 5.10015767 9.25 5.0625 C8.07953125 5.05347656 6.9090625 5.04445312 5.703125 5.03515625 C4.81109375 5.02355469 3.9190625 5.01195312 3 5 C3 5.99 3 6.98 3 8 C2.34 8 1.68 8 1 8 C0.67 5.36 0.34 2.72 0 0 Z " fill="#D93066" transform="translate(1019,150)"/>
<path d="M0 0 C0.33 0 0.66 0 1 0 C1.07347656 1.82724609 1.07347656 1.82724609 1.1484375 3.69140625 C1.22352273 5.31512437 1.29906802 6.93882126 1.375 8.5625 C1.42140625 9.76229492 1.42140625 9.76229492 1.46875 10.98632812 C1.71256564 15.96423083 2.43631388 20.26444649 4 25 C3.34 25.66 2.68 26.32 2 27 C-1.45400574 18.44722389 -1.56813396 10.07921765 -1 1 C-0.67 0.67 -0.34 0.34 0 0 Z " fill="#060606" transform="translate(43,89)"/>
<path d="M0 0 C5.68748885 1.25124755 8.72847508 3.04102568 13 7 C12.67 7.66 12.34 8.32 12 9 C6.55791766 8.65986985 3.06331802 5.29703472 -1 2 C-0.67 1.34 -0.34 0.68 0 0 Z " fill="#121212" transform="translate(22,52)"/>
<path d="M0 0 C2.52369435 2.00048943 4.43214491 4.18400929 6 7 C6 7.99 6 8.98 6 10 C5.34 10 4.68 10 4 10 C3.566875 9.05125 3.13375 8.1025 2.6875 7.125 C1.20697799 3.79958063 1.20697799 3.79958063 -2 2 C-4.9824577 1.97584416 -4.9824577 1.97584416 -8.1875 2.375 C-9.27417969 2.48585938 -10.36085938 2.59671875 -11.48046875 2.7109375 C-12.72763672 2.85402344 -12.72763672 2.85402344 -14 3 C-10.57677554 -2.13483669 -5.5029192 -1.70328451 0 0 Z " fill="#040404" transform="translate(85,92)"/>
<path d="M0 0 C2.26562673 2.26562673 2.94462749 3.84160705 3.09765625 7.04296875 C3.06510417 9.02864583 3.03255208 11.01432292 3 13 C0.0991395 12.64701919 -0.89516676 12.11271704 -2.921875 9.93359375 C-3.52515625 9.10988281 -4.1284375 8.28617188 -4.75 7.4375 C-5.36359375 6.61121094 -5.9771875 5.78492188 -6.609375 4.93359375 C-7.06828125 4.29550781 -7.5271875 3.65742188 -8 3 C-7.01 3 -6.02 3 -5 3 C-5 3.66 -5 4.32 -5 5 C-4.34 5 -3.68 5 -3 5 C-1.375 7 -1.375 7 0 9 C0.15149298 5.37114676 0.15149298 5.37114676 -1 2 C-0.67 1.34 -0.34 0.68 0 0 Z " fill="#040404" transform="translate(67,23)"/>
<path d="M0 0 C2.475 0.495 2.475 0.495 5 1 C5.33 1.99 5.66 2.98 6 4 C6.99 3.67 7.98 3.34 9 3 C10.625 5.25 10.625 5.25 12 8 C11.1875 10.3125 11.1875 10.3125 10 12 C9.79375 11.4225 9.5875 10.845 9.375 10.25 C7.51518335 7.20666366 4.95455813 5.92688574 2 4 C2 3.34 2 2.68 2 2 C1.34 2 0.68 2 0 2 C0 1.34 0 0.68 0 0 Z " fill="#131313" transform="translate(65,135)"/>
<path d="M0 0 C7.42851417 3.16625194 12.638599 6.96467988 18 13 C17.34 13.66 16.68 14.32 16 15 C15.29875 14.278125 14.5975 13.55625 13.875 12.8125 C10.26048215 9.20819265 6.54074288 5.90434908 2.125 3.3125 C1.42375 2.879375 0.7225 2.44625 0 2 C0 1.34 0 0.68 0 0 Z " fill="#040404" transform="translate(121,48)"/>
<path d="M0 0 C1.32 0.66 2.64 1.32 4 2 C4 2.99 4 3.98 4 5 C3.34 5 2.68 5 2 5 C2.20496094 5.54269531 2.40992188 6.08539063 2.62109375 6.64453125 C2.89050781 7.35996094 3.15992188 8.07539063 3.4375 8.8125 C3.83775391 9.87404297 3.83775391 9.87404297 4.24609375 10.95703125 C4.86225186 12.62672396 5.43719235 14.31157704 6 16 C4.1875 15.5 4.1875 15.5 2 14 C-0.19438318 9.91422379 -1.56554037 5.66570805 -1 1 C-0.67 0.67 -0.34 0.34 0 0 Z " fill="#050505" transform="translate(54,8)"/>
<path d="M0 0 C0.66 0.33 1.32 0.66 2 1 C-2.36211899 7.66730383 -7.63099818 12.267303 -14 17 C-14 16.01 -14 15.02 -14 14 C-10.66666667 11 -10.66666667 11 -8 11 C-7.73445312 10.41734375 -7.46890625 9.8346875 -7.1953125 9.234375 C-5.96697004 6.93825772 -4.59685061 5.19643982 -2.875 3.25 C-2.33617187 2.63640625 -1.79734375 2.0228125 -1.2421875 1.390625 C-0.62730469 0.70226562 -0.62730469 0.70226562 0 0 Z " fill="#040404" transform="translate(143,124)"/>
<path d="M0 0 C1.32 0 2.64 0 4 0 C4.11138159 5.45769811 3.91657981 10.61509359 3 16 C0.67409146 12.36576791 0.83734167 9.22911669 1 5 C0.01 5 -0.98 5 -2 5 C-1.34 3.35 -0.68 1.7 0 0 Z " fill="#030303" transform="translate(113,8)"/>
<path d="M0 0 C3.16115776 1.36983503 3.9927092 1.9890638 6 5 C6.06573798 7.8157766 5.54131918 10.20318424 5 13 C4.01 13.495 4.01 13.495 3 14 C3.33 11.69 3.66 9.38 4 7 C2.68 6.34 1.36 5.68 0 5 C0 3.35 0 1.7 0 0 Z " fill="#D83166" transform="translate(1050,113)"/>
<path d="M0 0 C1.15242188 0.10183594 2.30484375 0.20367187 3.4921875 0.30859375 C4.36101562 0.39238281 5.22984375 0.47617188 6.125 0.5625 C6.125 0.8925 6.125 1.2225 6.125 1.5625 C4.93261719 1.61148438 3.74023438 1.66046875 2.51171875 1.7109375 C0.94528932 1.78597604 -0.62111579 1.8615234 -2.1875 1.9375 C-2.97318359 1.9684375 -3.75886719 1.999375 -4.56835938 2.03125 C-5.7043457 2.08925781 -5.7043457 2.08925781 -6.86328125 2.1484375 C-7.55977783 2.1798584 -8.25627441 2.2112793 -8.97387695 2.24365234 C-11.20032739 2.48368253 -11.20032739 2.48368253 -13.875 4.5625 C-15.195 3.9025 -16.515 3.2425 -17.875 2.5625 C-11.81288991 -0.11196033 -6.57370986 -0.60370805 0 0 Z " fill="#CF2F62" transform="translate(1031.875,105.4375)"/>
<path d="M0 0 C0.66 0.66 1.32 1.32 2 2 C2.99 2 3.98 2 5 2 C5.33 1.34 5.66 0.68 6 0 C6.99 0.33 7.98 0.66 9 1 C8.01 2.32 7.02 3.64 6 5 C6.99 5.33 7.98 5.66 9 6 C3.13551546 5.7444669 -0.65757571 5.34242429 -5 1 C-2 0 -2 0 0 0 Z " fill="#DB2F66" transform="translate(1037,130)"/>
<path d="M0 0 C1.27609323 0.90933009 2.54565553 1.82782853 3.8125 2.75 C4.87404297 3.51570312 4.87404297 3.51570312 5.95703125 4.296875 C8.02977691 6.02482358 9.47375854 7.78526476 11 10 C8.03 9.505 8.03 9.505 5 9 C5 8.34 5 7.68 5 7 C3.7934375 6.566875 3.7934375 6.566875 2.5625 6.125 C0 5 0 5 -1 3 C-0.67 2.01 -0.34 1.02 0 0 Z " fill="#D83964" transform="translate(1108,143)"/>
<path d="M0 0 C2.33944736 0.28730055 4.6739143 0.61936779 7 1 C7 2.32 7 3.64 7 5 C5.35 5.33 3.7 5.66 2 6 C1.67 5.01 1.34 4.02 1 3 C0.34 2.34 -0.32 1.68 -1 1 C-0.67 0.67 -0.34 0.34 0 0 Z " fill="#070707" transform="translate(111,181)"/>
<path d="M0 0 C5.97976619 5.82643885 5.97976619 5.82643885 6.0625 10.625 C6.041875 11.73875 6.02125 12.8525 6 14 C5.67 14 5.34 14 5 14 C4.67 11.36 4.34 8.72 4 6 C3.34 6 2.68 6 2 6 C2 5.34 2 4.68 2 4 C0.68 4.33 -0.64 4.66 -2 5 C-2.33 4.34 -2.66 3.68 -3 3 C-2.34 3 -1.68 3 -1 3 C-0.67 2.01 -0.34 1.02 0 0 Z " fill="#D33263" transform="translate(1119,113)"/>
<path d="M0 0 C1.9375 0.0625 1.9375 0.0625 4 1 C6.07190488 5.35100024 6.19055047 9.23623816 6 14 C5.34 14 4.68 14 4 14 C3.67 10.04 3.34 6.08 3 2 C1.68 1.67 0.36 1.34 -1 1 C-0.67 0.67 -0.34 0.34 0 0 Z " fill="#060606" transform="translate(84,112)"/>
<path d="M0 0 C0.66 0.33 1.32 0.66 2 1 C2.05399736 2.45792884 2.09279177 3.91642712 2.125 5.375 C2.14820312 6.18710938 2.17140625 6.99921875 2.1953125 7.8359375 C2 10 2 10 0 12 C-0.33 11.01 -0.66 10.02 -1 9 C-1.33 9 -1.66 9 -2 9 C-1.125 1.125 -1.125 1.125 0 0 Z " fill="#111111" transform="translate(76,146)"/>
<path d="M0 0 C0 0.66 0 1.32 0 2 C-0.99 2.495 -0.99 2.495 -2 3 C-0.68 3.66 0.64 4.32 2 5 C2 5.99 2 6.98 2 8 C-2.41889613 6.64978174 -4.34345343 4.73884332 -7 1 C-4.50935112 0.31292445 -2.62113708 0 0 0 Z " fill="#D72E61" transform="translate(1008,166)"/>
<path d="M0 0 C3.78962312 3.78962312 4.91206179 9.32917408 5.1875 14.5625 C5.125625 15.366875 5.06375 16.17125 5 17 C2.1493267 13.77749974 1.56232363 11.2174272 1 7 C0.67 6.67 0.34 6.34 0 6 C-0.04080783 4.00041636 -0.04254356 1.99954746 0 0 Z " fill="#040404" transform="translate(146,73)"/>
<path d="M0 0 C6.39559286 0.60335782 6.39559286 0.60335782 9 2.3125 C10 4 10 4 9.6875 6.1875 C9.3471875 7.0846875 9.3471875 7.0846875 9 8 C8.01 7.34 7.02 6.68 6 6 C6.33 5.01 6.66 4.02 7 3 C4.69 3 2.38 3 0 3 C0 2.01 0 1.02 0 0 Z " fill="#D92E63" transform="translate(1078,73)"/>
<path d="M0 0 C-4.82646677 3.21764451 -10.19821824 4.36261136 -16 4 C-11.37112073 -0.62887927 -6.14652632 -0.24104025 0 0 Z " fill="#040404" transform="translate(112,187)"/>
<path d="M0 0 C0.99 0.66 1.98 1.32 3 2 C2.5359375 2.7734375 2.5359375 2.7734375 2.0625 3.5625 C0.70940713 6.66665423 0.38640576 9.65115007 0 13 C-0.66 13 -1.32 13 -2 13 C-2 10.03 -2 7.06 -2 4 C-1.34 4 -0.68 4 0 4 C0 2.68 0 1.36 0 0 Z " fill="#D53664" transform="translate(1017,133)"/>
<path d="M0 0 C0.66 0.33 1.32 0.66 2 1 C0.02 3.31 -1.96 5.62 -4 8 C-5.32 7.67 -6.64 7.34 -8 7 C-5.36 4.69 -2.72 2.38 0 0 Z " fill="#D53062" transform="translate(930,110)"/>
<path d="M0 0 C0.66 0.33 1.32 0.66 2 1 C2.61528766 6.07612318 0.61658349 8.82982006 -2 13 C-3.45047396 10.09905209 -2.45356803 8.44027404 -1.5625 5.375 C-1.27503906 4.37210937 -0.98757812 3.36921875 -0.69140625 2.3359375 C-0.46324219 1.56507812 -0.23507813 0.79421875 0 0 Z " fill="#050505" transform="translate(45,76)"/>
<path d="M0 0 C-1.75864246 2.1793144 -2.69396 2.93686419 -5.48046875 3.51171875 C-6.37378906 3.56972656 -7.26710938 3.62773437 -8.1875 3.6875 C-9.08855469 3.75324219 -9.98960938 3.81898438 -10.91796875 3.88671875 C-11.94857422 3.94279297 -11.94857422 3.94279297 -13 4 C-13.33 3.34 -13.66 2.68 -14 2 C-4.58997722 -0.29612756 -4.58997722 -0.29612756 0 0 Z " fill="#060606" transform="translate(106,180)"/>
<path d="M0 0 C1.5 1.375 1.5 1.375 3 3 C3 3.66 3 4.32 3 5 C3.99 5.33 4.98 5.66 6 6 C7.6875 9.0625 7.6875 9.0625 9 12 C8.01 12.495 8.01 12.495 7 13 C5.82786955 11.21190303 4.66244474 9.41940875 3.5 7.625 C2.8503125 6.62726563 2.200625 5.62953125 1.53125 4.6015625 C0 2 0 2 0 0 Z " fill="#050505" transform="translate(46,116)"/>
<path d="M0 0 C0.625 2.5625 0.625 2.5625 1 5 C0.01 5 -0.98 5 -2 5 C-4.1875 2.5 -4.1875 2.5 -6 0 C-2.25 -1.125 -2.25 -1.125 0 0 Z " fill="#DC2F64" transform="translate(1101,163)"/>
<path d="M0 0 C-0.4793247 4.31392226 -1.7457985 6.16569547 -5 9 C-4.79375 8.05125 -4.5875 7.1025 -4.375 6.125 C-4.25125 5.09375 -4.1275 4.0625 -4 3 C-4.66 2.34 -5.32 1.68 -6 1 C-3 0 -3 0 0 0 Z " fill="#010101" transform="translate(169,32)"/>
<path d="M0 0 C2.69082872 0.17635452 5.32851446 0.61835921 8 1 C8 1.33 8 1.66 8 2 C6.02 2.33 4.04 2.66 2 3 C2 4.98 2 6.96 2 9 C1.34 8.67 0.68 8.34 0 8 C-0.6875 4.5 -0.6875 4.5 -1 1 C-0.67 0.67 -0.34 0.34 0 0 Z " fill="#040404" transform="translate(93,112)"/>
<path d="M0 0 C0 4.38968456 -2.12805101 5.76905739 -5 9 C-5.99 8.67 -6.98 8.34 -8 8 C-7.04578192 6.85073734 -6.08647955 5.70569459 -5.125 4.5625 C-4.59132812 3.92441406 -4.05765625 3.28632812 -3.5078125 2.62890625 C-2 1 -2 1 0 0 Z " fill="#040404" transform="translate(162,34)"/>
<path d="M0 0 C2.31 0.66 4.62 1.32 7 2 C7 1.34 7 0.68 7 0 C7.66 0.33 8.32 0.66 9 1 C9 2.65 9 4.3 9 6 C5.06326356 4.68775452 2.77280706 3.08089673 0 0 Z " fill="#D03262" transform="translate(924,170)"/>
<path d="M0 0 C2 2 2 2 2.3125 4.9375 C2 8 2 8 0.5 9.875 C-0.2425 10.431875 -0.2425 10.431875 -1 11 C-1.33 9.35 -1.66 7.7 -2 6 C-1.34 5.67 -0.68 5.34 0 5 C0 3.35 0 1.7 0 0 Z " fill="#CF3263" transform="translate(1128,160)"/>
<path d="M0 0 C2.9555377 2.75170751 5.11563315 5.41970299 7 9 C7 9.66 7 10.32 7 11 C6.34 11 5.68 11 5 11 C3.7109375 9.35546875 3.7109375 9.35546875 2.375 7.1875 C1.92898437 6.47980469 1.48296875 5.77210937 1.0234375 5.04296875 C0 3 0 3 0 0 Z " fill="#040404" transform="translate(139,62)"/>
<path d="M0 0 C0.66 0 1.32 0 2 0 C2.45375 1.134375 2.9075 2.26875 3.375 3.4375 C4.57095806 7.04721692 4.57095806 7.04721692 7 8 C7 8.66 7 9.32 7 10 C4.53199953 8.84826645 2.95216435 7.95216435 1 6 C0.60235737 4.01178687 0.26224651 2.01055661 0 0 Z " fill="#030303" transform="translate(67,101)"/>
<path d="M0 0 C3.79588866 0.54226981 5.47211993 2.20127563 8 5 C7.67 5.99 7.34 6.98 7 8 C5.83035398 6.8572081 4.66435444 5.71068285 3.5 4.5625 C2.8503125 3.92441406 2.200625 3.28632813 1.53125 2.62890625 C0 1 0 1 0 0 Z " fill="#040404" transform="translate(54,129)"/>
<path d="M0 0 C2.7972908 2.06756277 3.02692273 3.14440371 3.6875 6.6875 C3.790625 7.780625 3.89375 8.87375 4 10 C3.67 9.01 3.34 8.02 3 7 C2.01 6.67 1.02 6.34 0 6 C0 4.02 0 2.04 0 0 Z " fill="#CD3665" transform="translate(1052,156)"/>
<path d="M0 0 C2.40072955 2.88087546 4.47291037 5.56404834 6 9 C4.68 8.34 3.36 7.68 2 7 C2 6.01 2 5.02 2 4 C1.34 4 0.68 4 0 4 C-0.33 3.01 -0.66 2.02 -1 1 C-0.67 0.67 -0.34 0.34 0 0 Z " fill="#020202" transform="translate(57,119)"/>
<path d="M0 0 C1.98 0.66 3.96 1.32 6 2 C6.33 3.98 6.66 5.96 7 8 C4.35247996 5.42215154 2.05567935 3.08351902 0 0 Z " fill="#D03262" transform="translate(872,108)"/>
<path d="M0 0 C0 0.99 0 1.98 0 3 C-1.8125 4.75 -1.8125 4.75 -4 6 C-4.99 5.67 -5.98 5.34 -7 5 C-4.69 3.35 -2.38 1.7 0 0 Z " fill="#040404" transform="translate(128,132)"/>
<path d="" fill="#FFFFFF" transform="translate(0,0)"/>
<path d="" fill="#FFFFFF" transform="translate(0,0)"/>
<path d="" fill="#FFFFFF" transform="translate(0,0)"/>
<path d="" fill="#FFFFFF" transform="translate(0,0)"/>
<path d="" fill="#FFFFFF" transform="translate(0,0)"/>
<path d="" fill="#FFFFFF" transform="translate(0,0)"/>
<path d="" fill="#FFFFFF" transform="translate(0,0)"/>
<path d="" fill="#FFFFFF" transform="translate(0,0)"/>
<path d="" fill="#FFFFFF" transform="translate(0,0)"/>
<path d="" fill="#FFFFFF" transform="translate(0,0)"/>
<path d="" fill="#FFFFFF" transform="translate(0,0)"/>
<path d="" fill="#FFFFFF" transform="translate(0,0)"/>
<path d="" fill="#FFFFFF" transform="translate(0,0)"/>
<path d="" fill="#FFFFFF" transform="translate(0,0)"/>
<path d="" fill="#FFFFFF" transform="translate(0,0)"/>
<path d="" fill="#FFFFFF" transform="translate(0,0)"/>
<path d="" fill="#FFFFFF" transform="translate(0,0)"/>
<path d="" fill="#FFFFFF" transform="translate(0,0)"/>
<path d="" fill="#FFFFFF" transform="translate(0,0)"/>
<path d="" fill="#FFFFFF" transform="translate(0,0)"/>
<path d="" fill="#FFFFFF" transform="translate(0,0)"/>
<path d="" fill="#FFFFFF" transform="translate(0,0)"/>
<path d="" fill="#FFFFFF" transform="translate(0,0)"/>
<path d="" fill="#FFFFFF" transform="translate(0,0)"/>
<path d="" fill="#FFFFFF" transform="translate(0,0)"/>
<path d="" fill="#FFFFFF" transform="translate(0,0)"/>
<path d="" fill="#FFFFFF" transform="translate(0,0)"/>
<path d="" fill="#FFFFFF" transform="translate(0,0)"/>
<path d="" fill="#FFFFFF" transform="translate(0,0)"/>
<path d="" fill="#FFFFFF" transform="translate(0,0)"/>
<path d="" fill="#FFFFFF" transform="translate(0,0)"/>
<path d="" fill="#FFFFFF" transform="translate(0,0)"/>
<path d="" fill="#FFFFFF" transform="translate(0,0)"/>
<path d="" fill="#FFFFFF" transform="translate(0,0)"/>
<path d="" fill="#FFFFFF" transform="translate(0,0)"/>
<path d="" fill="#FFFFFF" transform="translate(0,0)"/>
<path d="" fill="#FFFFFF" transform="translate(0,0)"/>
<path d="" fill="#FFFFFF" transform="translate(0,0)"/>
<path d="" fill="#FFFFFF" transform="translate(0,0)"/>
<path d="" fill="#FFFFFF" transform="translate(0,0)"/>
<path d="" fill="#FFFFFF" transform="translate(0,0)"/>
<path d="" fill="#FFFFFF" transform="translate(0,0)"/>
<path d="" fill="#FFFFFF" transform="translate(0,0)"/>
<path d="" fill="#FFFFFF" transform="translate(0,0)"/>
<path d="" fill="#FFFF00" transform="translate(0,0)"/>
<path d="" fill="#FFFFFF" transform="translate(0,0)"/>
<path d="" fill="#FFFFFF" transform="translate(0,0)"/>
<path d="" fill="#FFFFFF" transform="translate(0,0)"/>
<path d="" fill="#FFFFFF" transform="translate(0,0)"/>
<path d="" fill="#FFFFFF" transform="translate(0,0)"/>
<path d="" fill="#FFFFFF" transform="translate(0,0)"/>
<path d="" fill="#FFFFFF" transform="translate(0,0)"/>
<path d="" fill="#FFFFFF" transform="translate(0,0)"/>
<path d="" fill="#FFFFFF" transform="translate(0,0)"/>
<path d="" fill="#FFFFFF" transform="translate(0,0)"/>
<path d="" fill="#FFFFFF" transform="translate(0,0)"/>
<path d="" fill="#FFFFFF" transform="translate(0,0)"/>
<path d="" fill="#FFFFFF" transform="translate(0,0)"/>
<path d="" fill="#FFFFFF" transform="translate(0,0)"/>
<path d="" fill="#FFFFFF" transform="translate(0,0)"/>
<path d="" fill="#FFFFFF" transform="translate(0,0)"/>
<path d="" fill="#FFFFFF" transform="translate(0,0)"/>
<path d="" fill="#FFFFFF" transform="translate(0,0)"/>
<path d="" fill="#FFFFFF" transform="translate(0,0)"/>
<path d="" fill="#FFFFFF" transform="translate(0,0)"/>
<path d="" fill="#FFFFFF" transform="translate(0,0)"/>
<path d="" fill="#FFFFFF" transform="translate(0,0)"/>
<path d="" fill="#FFFFFF" transform="translate(0,0)"/>
<path d="" fill="#FFFFFF" transform="translate(0,0)"/>
</svg>
